<?xml version="1.0" encoding="UTF-8" standalone="no"?>
<svg
   id="Layer_1"
   data-name="Layer 1"
   viewBox="0 0 2869.15 2705.98"
   version="1.1"
   sodipodi:docname="blackburn_layout.svg"
   inkscape:version="1.3.2 (091e20e, 2023-11-25, custom)"
   xmlns:inkscape="http://www.inkscape.org/namespaces/inkscape"
   xmlns:sodipodi="http://sodipodi.sourceforge.net/DTD/sodipodi-0.dtd"
   xmlns="http://www.w3.org/2000/svg"
   xmlns:svg="http://www.w3.org/2000/svg">
  <sodipodi:namedview
     id="namedview6"
     pagecolor="#ffffff"
     bordercolor="#000000"
     borderopacity="0.25"
     inkscape:showpageshadow="2"
     inkscape:pageopacity="0.0"
     inkscape:pagecheckerboard="0"
     inkscape:deskcolor="#d1d1d1"
     inkscape:zoom="0.24382846"
     inkscape:cx="965.84294"
     inkscape:cy="1183.2089"
     inkscape:window-width="1920"
     inkscape:window-height="1094"
     inkscape:window-x="-11"
     inkscape:window-y="-11"
     inkscape:window-maximized="1"
     inkscape:current-layer="Layer_1" />
  <defs
     id="defs1">
    <style
       id="style1">
      .cls-1 {
        letter-spacing: -.02em;
      }

      .cls-2 {
        letter-spacing: -.02em;
      }

      .cls-3 {
        stroke-width: 4.76px;
      }

      .cls-3, .cls-4, .cls-5, .cls-6, .cls-7, .cls-8, .cls-9, .cls-10, .cls-11, .cls-12, .cls-13, .cls-14, .cls-15, .cls-16, .cls-17 {
        stroke: #010101;
      }

      .cls-3, .cls-5, .cls-10, .cls-18, .cls-13, .cls-16 {
        fill: #010101;
      }

      .cls-3, .cls-6, .cls-8, .cls-9, .cls-11, .cls-12, .cls-13, .cls-14, .cls-16, .cls-17 {
        stroke-miterlimit: 12.96;
      }

      .cls-4 {
        stroke-miterlimit: 12.96;
        stroke-width: 6.06px;
      }

      .cls-4, .cls-6, .cls-7, .cls-8, .cls-9, .cls-11, .cls-12, .cls-14, .cls-15, .cls-17 {
        fill: none;
      }

      .cls-5 {
        stroke-width: 8.47px;
      }

      .cls-5, .cls-15 {
        stroke-miterlimit: 12.96;
      }

      .cls-6 {
        stroke-width: 6.1px;
      }

      .cls-7 {
        stroke-miterlimit: 3;
        stroke-width: 8.79px;
      }

      .cls-8 {
        stroke-width: 14.7px;
      }

      .cls-9 {
        stroke-width: 7.75px;
      }

      .cls-10 {
        stroke-width: 1.46px;
      }

      .cls-11 {
        stroke-width: 9.84px;
      }

      .cls-12 {
        stroke-width: 5.78px;
      }

      .cls-18 {
        font-family: ArialMT, Arial;
        font-size: 59.16px;
        isolation: isolate;
      }

      .cls-13 {
        stroke-width: 7.1px;
      }

      .cls-14 {
        stroke-width: 6.12px;
      }

      .cls-15 {
        stroke-width: 6.12px;
      }

      .cls-16 {
        stroke-width: 4.68px;
      }

      .cls-17 {
        stroke-width: 6.1px;
      }
    </style>
  </defs>
  <path
     id="path3"
     class="cls-8"
     d="M1912.8,2343.21H310.03v-103.29h-48.64v-57.65h50.44v-633.83h919.55v-690.87h673.35v414.27h178.98L2156.93,7.75l501.88,28.16-11.6,176.89-95.23-5.24-7.88,136.01-7.88,115.56-6.02,98.83-6.02,95.12-6.02,117.42,96.2,7.77-9.74,180.61-6.02,102.55-6.02,102.55-6.02,102.55-6.02,102.55-6.02,102.55-6.02,102.55-6.02,102.55-503.13-30.66,19.4-308.51h-85.73v309.14h-86.36l6.19,696.53Z" />
  <rect
     id="rect3"
     class="cls-11"
     x="1902.21"
     y="1232.74"
     width="5.07"
     height="335.46" />
  <path
     id="blackburn_1400"
     data-name="14000"
     class="cls-14"
     d="M1793.93,2276.88l-742.7,2.6-8.68-7.81h-76.35v-32.97h79.82l2.72-10.15h745.19v48.32Z"
     inkscape:label="blackburn_1400" />
  <path
     id="blackburn_no.2"
     class="cls-14"
     d="M1745.9,2045.65h-437.94v16.84h-104.22v-17.9h-20v20h-70.53v12.63l11.58,6.32v8.42h78.96v-3.16h70.53v37.9h15.79v-38.95h17.9v38.95h22.11v-33.69h415.94l-.11-47.37Z"
     inkscape:label="blackburn_no.2" />
  <rect
     id="blackburn_palletturner"
     class="cls-14"
     x="800.7"
     y="2182.59"
     width="66.24"
     height="45.73"
     inkscape:label="blackburn_palletturner" />
  <path
     id="blackburn_142cer"
     class="cls-14"
     d="M757.97,2246.27h-82.48v32.91h-49.15v-11.97h-80.35v-20.09h8.12v-17.95h3.85v-10.26l9.4-4.27v-27.78h50v-13.68h17.95v-6.84h40.17v15.39h12.39v-12.39h55.99v12.39h14.1v8.55h-26.07v39.75h26.07v16.24Z"
     inkscape:label="blackburn_142cer" />
  <path
     id="blackburn_142e"
     class="cls-14"
     d="M696.85,2148.82h-83.34v-18.38h-40.17v-24.36h13.25v-16.67h5.98v-30.77h111.54v32.91l7.5,2.01v18.5h-7.07v23.51h-7.27l-.43,13.25Z"
     inkscape:label="blackburn_142e" />
  <path
     id="blackburn_ibericasrk"
     class="cls-14"
     d="M746.86,1971.46h-54.28v8.55h-125.65v-16.67h-15.81v-42.31h13.25v-44.02h58.12v-12.82h124.37v11.54h-4.7v60.26h5.98l-1.28,35.47Z"
     inkscape:label="blackburn_ibericasrk" />
  <path
     id="blackburn_vision1"
     class="cls-14"
     d="M845.54,1947.84h31.12v-41.83h11.22v-40.81h-12.75v-57.65h9.69l4.59-4.59v-5.1h-12.75l-5.57-9.64v-71.98h-24.53l-1.02,231.6Z"
     inkscape:label="blackburn_vision1" />
  <path
     id="blackburn_vision2"
     class="cls-14"
     d="M920.02,1947.84h31.12v-41.83h11.22v-40.81h-12.75v-57.65h9.69l4.59-4.59v-5.1h-12.75l-5.57-9.64v-71.98h-24.53l-1.02,231.6Z"
     inkscape:label="blackburn_vision2" />
  <path
     id="blackburn_trayformer1"
     class="cls-14"
     d="M1011.84,1824.39v-19.39h9.18v-28.57h-10.71v-60.2h-26.02v93.86h-4.59v13.77l32.14.51Z"
     inkscape:label="blackburn_trayformer1" />
  <path
     id="blackburn_trayformer2"
     class="cls-14"
     d="M1096.02,1824.39v-19.39h9.18v-28.57h-10.71v-60.2h-26.02v93.86h-4.59v13.77l32.14.51Z"
     inkscape:label="blackburn_trayformer2" />
  <path
     id="blackburn_trayformer3"
     data-name="path12"
     class="cls-14"
     d="M1171.01,1824.39v-19.39h9.18v-28.57h-10.71v-60.2h-26.02v93.86h-4.59v13.77l32.14.51Z"
     inkscape:label="blackburn_trayformer3" />
  <path
     id="blackburn_trayformer4"
     data-name="path12"
     class="cls-14"
     d="M1243.44,1824.39v-19.39h9.18v-28.57h-10.71v-60.2h-26.02v93.86h-4.59v13.77l32.14.51Z"
     inkscape:label="blackburn_trayformer4" />
  <path
     id="blackburn_trayformer5"
     class="cls-14"
     d="M1284.26,1822.86l39.79.51v-21.43h9.18v-27.04h-12.75v-56.63h-34.18v87.74l-4.19,1.12,2.15,15.71Z"
     inkscape:label="blackburn_trayformer5" />
  <path
     id="path14"
     class="cls-14"
     d="M852.17,1673.39h13.77v-12.24h18.87v-25h-16.32v-27.55h-19.38v8.67h-14.79l.8,2.98h-12.02v14.87h11.73v4.08h12.75v24.49h4.08l.51,9.69Z" />
  <path
     id="path15"
     class="cls-14"
     d="M926.65,1673.39h13.77v-12.24h18.87v-25h-16.32v-27.55h-19.38v8.67h-14.79l.8,2.98h-12.02v14.87h11.73v4.08h12.75v24.49h4.08l.51,9.69Z" />
  <path
     id="blackburn_caseerector3"
     class="cls-14"
     d="M1000.11,1673.39h13.77v-12.24h18.87v-25h-16.32v-27.55h-19.38v8.67h-14.79l.8,2.98h-12.02v14.87h11.73v4.08h12.75v24.49h4.08l.51,9.69Z"
     inkscape:label="blackburn_caseerector3" />
  <path
     id="blackburn_caseerector4"
     class="cls-14"
     d="M1074.59,1673.39h13.77v-12.24h18.87v-25h-16.32v-27.55h-19.38v8.67h-14.79l.8,2.98h-12.02v14.87h11.73v4.08h12.75v24.49h4.08l.51,9.69Z"
     inkscape:label="blackburn_caseerector4" />
  <path
     id="blackburn_caseerector5"
     class="cls-14"
     d="M1148.56,1673.39h13.77v-12.24h18.87v-25h-16.32v-27.55h-19.38v8.67h-14.79l.8,2.98h-12.02v14.87h11.73v4.08h12.75v24.49h4.08l.51,9.69Z"
     inkscape:label="blackburn_caseerector5" />
  <path
     id="blackburn_caseerector6"
     class="cls-14"
     d="M1222.02,1673.39h13.77v-12.24h18.87v-25h-16.32v-27.55h-19.38v8.67h-14.79l.8,2.98h-12.02v14.87h11.73v4.08h12.75v24.49h4.08l.51,9.69Z"
     inkscape:label="blackburn_caseerector6" />
  <path
     id="blackburn_caseerector7"
     class="cls-14"
     d="M1294.46,1673.39h13.77v-12.24h18.87v-25h-16.32v-27.55h-19.38v8.67h-14.79l.8,2.98h-12.02v14.87h11.73v4.08h12.75v24.49h4.08l.51,9.69Z"
     inkscape:label="blackburn_caseerector7" />
  <path
     id="blackburn_domino110"
     class="cls-14"
     d="m 1689.07,1946.25 v 51.34 h -123.71 v 13.2 h 33.25 v 9.78 h -45.96 v -10.76 l 3.32,0.89 v -12.62 h -48.3 v -8.31 h -59.16 v -42.05 h -5.38 v -15.16 h 23.96 v 14.67 h -6.36 v 17.6 h 47.43 v -18.09 l 45.0005,-0.1219 z"
     sodipodi:nodetypes="cccccccccccccccccccccccc"
     inkscape:label="blackburn_domino110" />
  <path
     id="blackburn_windowpatcher1"
     class="cls-14"
     d="M1583.07,1924.24h18.48v-8.92h13.89l.54,2.01h61.85v5.44h7.33l6.51-6.52v-31.18h-9.5v-8.4h-13.82v3.04h-29.96v-4.64h-9.75l-10.45,10.45h-17.88v-6.73h-18.58v12.07h-17.18v21.83l18.58.46-.06,11.09Z"
     inkscape:label="blackburn_windowpatcher1" />
  <path
     id="blackburn_windowpatcher2"
     class="cls-14"
     d="M1583.07,1858.3h18.48v-8.92h13.89l.54,2.01h61.85v5.44h7.33l6.51-6.52v-31.18h-9.5l.93-18.16h-31.01l-.46-4.86-15.1.46-.46,8.36-20.9.46-.23,3.48.23,4.18-14.86-.23h-18.58v12.07h-17.18v21.83l18.58.46-.06,11.09Z"
     inkscape:label="blackburn_windowpatcher2" />
  <path
     id="blackburn_no.5"
     class="cls-14"
     d="M1743.91,1681.52v53.93h-11.58v5.19h-29.96v-7.19h-5.59v-9.99h-13.58v16.38h-148.6v-14.04h-23.79v-36.73h22.6v-13.32h151.35v14.93h12.11v-8.88l8.59-2.3v5.53h4.33v-7.67h20.58v4.84l13.55-.69Z"
     inkscape:label="blackburn_no.5" />
  <rect
     id="rect24"
     class="cls-14"
     x="1759.54"
     y="1569.33"
     width="75.03"
     height="46.36" />
  <rect
     id="rect25"
     class="cls-13"
     x="1478.94"
     y="1557.73"
     width="358.74"
     height="9.76" />
  <polygon
     id="rect26"
     class="cls-10"
     points="1230.57 1545.28 1389.38 1553.58 1389.38 1563.34 1230.57 1555.04 1230.57 1545.28" />
  <rect
     id="rect27"
     class="cls-5"
     x="1379.46"
     y="1050.48"
     width="9.76"
     height="510.93" />
  <rect
     id="rect28"
     class="cls-16"
     x="1227.81"
     y="1449.81"
     width="156.03"
     height="9.76" />
  <rect
     id="rect29"
     class="cls-16"
     x="1227.81"
     y="1361.95"
     width="156.03"
     height="9.76" />
  <rect
     id="rect30"
     class="cls-16"
     x="1227.81"
     y="1261.64"
     width="156.03"
     height="9.76" />
  <rect
     id="rect31"
     class="cls-3"
     x="1227.81"
     y="1048.56"
     width="161.39"
     height="9.76" />
  <rect
     id="blackburn_stripping"
     class="cls-14"
     x="1493.52"
     y="1290.06"
     width="226.5"
     height="137.99"
     inkscape:label="blackburn_stripping" />
  <path
     id="blackburn_platen"
     class="cls-14"
     d="M1695.83,1265.32h-60.47v-50.03h14.84v13.74h29.14v-12.64l-6.32-6.32v-45.91h22.27l.55,101.16Z"
     inkscape:label="blackburn_platen" />
  <path
     id="blackburn_guillotine"
     class="cls-14"
     d="M1584.23,1240.58v-12.64h22.54v-20.34h-26.94v-11.55h-20.34v45.08l24.74-.55Z"
     inkscape:label="blackburn_guillotine" />
  <rect
     id="blackburn_podsystem"
     class="cls-14"
     x="1813.48"
     y="1663.35"
     width="95.66"
     height="376.59"
     inkscape:label="blackburn_podsystem" />
  <rect
     id="blackburn_palletwrapping"
     class="cls-6"
     x="1493.56"
     y="1436.18"
     width="267.91"
     height="91.85"
     inkscape:label="blackburn_palletwrapping" />
  <path
     id="blackburn_wastehandling"
     class="cls-14"
     d="M1210.72,1530.98l-432.46.65v-63.44l117.18-66.68h315.28v129.48Z"
     inkscape:label="blackburn_wastehandling" />
  <path
     id="blackburn_frontyard"
     class="cls-14"
     d="M307.47,1542.62l-.61-142.66,412.29-101.5,33.28-541.7,475.08,2.89-.89,788.86-919.16-5.88Z"
     inkscape:label="blackburn_frontyard" />
  <rect
     id="rect35"
     class="cls-14"
     x="382.39"
     y="2245.86"
     width="43.7"
     height="98.08" />
  <rect
     id="rect36"
     class="cls-9"
     x="309.01"
     y="2246.62"
     width="71.55"
     height="95.99" />
  <path
     id="path37"
     class="cls-14"
     d="M312.11,2146.68h82.2v-50.35h30.83v147.97h-117.14v-5.14h-48.29v-57.54h50.35l2.06-34.94Z" />
  <path
     id="path38"
     class="cls-14"
     d="M425.24,2095.72l-1.43-60.1h-112.1v110.19h82.52v-49.61l31.01-.48Z" />
  <path
     id="path39"
     class="cls-14"
     d="M422.86,2035.14v-149.31h-108.28v149.79l108.28-.48Z" />
  <rect
     id="blackburn_maincanteen"
     class="cls-14"
     x="311.24"
     y="1709.81"
     width="111.62"
     height="174.11" />
  <rect
     id="rect40"
     class="cls-14"
     x="309.8"
     y="1669.74"
     width="83.96"
     height="40.07" />
  <rect
     id="rect41"
     class="cls-14"
     x="310.76"
     y="1603.91"
     width="83"
     height="63.92" />
  <rect
     id="blackburn_design_npd"
     class="cls-14"
     x="422.38"
     y="1550.49"
     width="199.87"
     height="102.56"
     inkscape:label="blackburn_design/npd" />
  <path
     id="blackburn_maincarpark"
     class="cls-14"
     d="M311.58,1545.03H3.06v1085.39l761.91,72.2v-362.13h-458.97v-100.36h-48.32v-61.33h50.18l3.72-633.76Z"
     inkscape:label="blackburn_maincarpark" />
  <path
     id="blackburn_goodsout"
     class="cls-14"
     d="M2175.7,26.59l-50.18,886.53,460.92,27.88,7.43-148.68-92.93-3.72,31.6-602.17,94.79,5.58,9.29-139.39-460.92-26.02Z"
     inkscape:label="blackburn_goodsout" />
  <path
     id="blackburn_goodsin"
     class="cls-14"
     d="M2124.23,926.67l-43.66,701.99,342.38,18.38,52.85-699.69-351.57-20.68Z"
     inkscape:label="blackburn_goodsin" />
  <path
     id="blackburn_mechanicalhandlingequipment"
     class="cls-14"
     d="M2435.59,1648.19l111.44,9.19,8.04-168.89-109.15-4.6-10.34,164.3Z"
     inkscape:label="blackburn_mechanicalhandlingequipment" />
  <path
     id="path46"
     class="cls-14"
     d="M2596.43,1082.92l-97.66-5.74-17.23,295.27,96.51,8.04,18.38-297.57Z" />
  <path
     id="path47"
     class="cls-14"
     d="M2579.2,1379.34l-97.66-8.04-8.04,98.81,101.1,8.04,4.6-98.81Z" />
  <polygon
     id="blackburn_rearyard"
     class="cls-4"
     points="2641.69 780.03 2865.93 793.48 2809.19 1700.12 2584.94 1686.67 2641.69 780.03"
     inkscape:label="blackburn_rearyard" />
  <rect
     id="blackburn_starchkitchen"
     data-name="Starch kitchen"
     class="cls-14"
     x="1816.44"
     y="2222.37"
     width="77.41"
     height="96.1"
     inkscape:label="blackburn_starchkitchen" />
  <path
     id="blackburn_autoconveyor"
     class="cls-14"
     d="M841.49,1695.73l486.19,1.9c2.38-.67,4.96-.59,7.29.24,2.33.83,4.38,2.4,5.8,4.43,2.28,3.26,2.79,7.42,3.01,11.4.22,3.82.23,7.65.05,11.48v187.07c0,.74-.01,1.5-.17,2.22-.16.73-.46,1.43-.9,2.03s-1.01,1.1-1.65,1.48c-.64.39-1.33.67-2.03.91-3.34,1.15-6.96,1.48-10.45.95l-53.18.95v18.04l63.62-.95c3.72-.41,7.33-1.72,10.45-3.8,4.75-3.17,8.22-8.03,10.45-13.29,1.14-2.68,1.96-5.5,2.41-8.38s.47-5.8.44-8.72l-1.9-192.77c.19-5.29-1.14-10.62-3.8-15.19-1.7-2.93-3.95-5.55-6.65-7.6-4.06-3.07-9.15-4.77-14.24-4.75l-494.74,1.9v10.45Z"
     inkscape:label="blackburn_autoconveyor" />
  <rect
     id="blackburn_casetaping"
     class="cls-14"
     x="1341.3"
     y="1774.56"
     width="22.52"
     height="68.38"
     inkscape:label="blackburn_casetaping" />
  <rect
     id="blackburn_palletlocatorsystem"
     class="cls-14"
     x="1174.79"
     y="1892.01"
     width="96.53"
     height="65.96"
     inkscape:label="blackburn_palletlocatorsystem" />
  <rect
     id="rect97"
     class="cls-14"
     x="1436.58"
     y="2398.73"
     width="164.90913"
     height="117.07354" />
  <rect
     id="blackburn_server_archiverooms"
     class="cls-15"
     x="804.33002"
     y="2562.3601"
     width="185.4928"
     height="116.61774"
     inkscape:label="blackburn_server&amp;archiverooms" />
  <rect
     id="rect98"
     class="cls-14"
     x="1436.58"
     y="2562.98"
     width="167.56"
     height="116.19" />
  <rect
     id="blackburn_upstairsoffices_accounts_hr_"
     class="cls-12"
     x="991.20001"
     y="2562.3601"
     width="445.56"
     height="116.99"
     inkscape:label="blackburn_upstairsoffices(accounts&amp;hr)" />
  <rect
     id="blackburn_operationsoffice"
     class="cls-15"
     x="804.33002"
     y="2399.28"
     width="131.89445"
     height="116.5781"
     inkscape:label="blackburn_operationsoffice" />
  <rect
     id="blackburn_mainoffice_supplychain_technical_"
     class="cls-17"
     x="937.57001"
     y="2399.27"
     width="499.01999"
     height="116.66"
     inkscape:label="blackburn_mainoffice(supplychain&amp;technical)" />
  <text
     class="cls-18"
     transform="translate(1612 2472.65)"
     id="text3"><tspan
       x="0"
       y="0"
       id="tspan1">1st Floor O</tspan><tspan
       class="cls-2"
       x="292.61"
       y="0"
       id="tspan2">f</tspan><tspan
       x="307.98"
       y="0"
       id="tspan3">fices</tspan></text>
  <text
     class="cls-18"
     transform="translate(1616.66 2636.95)"
     id="text6"><tspan
       x="0"
       y="0"
       id="tspan4">2nd Floor O</tspan><tspan
       class="cls-1"
       x="312.4"
       y="0"
       id="tspan5">f</tspan><tspan
       x="327.77"
       y="0"
       id="tspan6">fices</tspan></text>
  <rect
     id="blackburn_banding"
     class="cls-7"
     x="1401.97"
     y="1051.15"
     width="61.91"
     height="111.92"
     inkscape:label="blackburn_banding" />
</svg>
