<?xml version="1.0" encoding="UTF-8" standalone="no"?>
<!--?xml version="1.0" encoding="UTF-8" standalone="no"?-->

<!--?xml version="1.0" encoding="UTF-8" standalone="no"?-->

<!--?xml version="1.0" encoding="UTF-8" standalone="no"?-->

<!--?xml version="1.0" encoding="UTF-8" standalone="no"?-->

<!--?xml version="1.0" encoding="UTF-8" standalone="no"?-->

<!--?xml version="1.0" encoding="UTF-8" standalone="no"?-->

<!--?xml version="1.0" encoding="UTF-8" standalone="no"?-->

<svg
   id="Walls"
   viewBox="0 0 3500 2250.0001"
   version="1.1"
   sodipodi:docname="Goodyear_layout.svg"
   inkscape:version="1.3.2 (091e20e, 2023-11-25, custom)"
   width="3500"
   height="2250"
   xml:space="preserve"
   xmlns:inkscape="http://www.inkscape.org/namespaces/inkscape"
   xmlns:sodipodi="http://sodipodi.sourceforge.net/DTD/sodipodi-0.dtd"
   xmlns="http://www.w3.org/2000/svg"
   xmlns:svg="http://www.w3.org/2000/svg"><sodipodi:namedview
     id="namedview149"
     pagecolor="#ffffff"
     bordercolor="#000000"
     borderopacity="0.25"
     inkscape:showpageshadow="2"
     inkscape:pageopacity="0.0"
     inkscape:pagecheckerboard="0"
     inkscape:deskcolor="#d1d1d1"
     inkscape:zoom="0.35355339"
     inkscape:cx="1742.3111"
     inkscape:cy="1262.8927"
     inkscape:window-width="1920"
     inkscape:window-height="1094"
     inkscape:window-x="-11"
     inkscape:window-y="-11"
     inkscape:window-maximized="1"
     inkscape:current-layer="Walls" /><defs
     id="defs51"><style
       id="style1">
      .cls-1 {
        clip-path: url(#clippath);
      }

      .cls-2, .cls-3, .cls-4 {
        fill: none;
      }

      .cls-2, .cls-5 {
        stroke-width: 0px;
      }

      .cls-3 {
        stroke-width: 14.7px;
      }

      .cls-3, .cls-4 {
        stroke: #020202;
        stroke-miterlimit: 12.96;
      }

      .cls-6 {
        clip-path: url(#clippath-1);
      }

      .cls-7 {
        clip-path: url(#clippath-4);
      }

      .cls-8 {
        clip-path: url(#clippath-3);
      }

      .cls-9 {
        clip-path: url(#clippath-2);
      }

      .cls-10 {
        clip-path: url(#clippath-7);
      }

      .cls-11 {
        clip-path: url(#clippath-8);
      }

      .cls-12 {
        clip-path: url(#clippath-6);
      }

      .cls-13 {
        clip-path: url(#clippath-5);
      }

      .cls-14 {
        clip-path: url(#clippath-9);
      }

      .cls-15 {
        clip-path: url(#clippath-20);
      }

      .cls-16 {
        clip-path: url(#clippath-21);
      }

      .cls-17 {
        clip-path: url(#clippath-24);
      }

      .cls-18 {
        clip-path: url(#clippath-23);
      }

      .cls-19 {
        clip-path: url(#clippath-22);
      }

      .cls-20 {
        clip-path: url(#clippath-25);
      }

      .cls-21 {
        clip-path: url(#clippath-44);
      }

      .cls-22 {
        clip-path: url(#clippath-45);
      }

      .cls-23 {
        clip-path: url(#clippath-40);
      }

      .cls-24 {
        clip-path: url(#clippath-42);
      }

      .cls-25 {
        clip-path: url(#clippath-41);
      }

      .cls-26 {
        clip-path: url(#clippath-47);
      }

      .cls-27 {
        clip-path: url(#clippath-43);
      }

      .cls-28 {
        clip-path: url(#clippath-46);
      }

      .cls-29 {
        clip-path: url(#clippath-48);
      }

      .cls-30 {
        clip-path: url(#clippath-49);
      }

      .cls-31 {
        clip-path: url(#clippath-27);
      }

      .cls-32 {
        clip-path: url(#clippath-28);
      }

      .cls-33 {
        clip-path: url(#clippath-26);
      }

      .cls-34 {
        clip-path: url(#clippath-29);
      }

      .cls-35 {
        clip-path: url(#clippath-34);
      }

      .cls-36 {
        clip-path: url(#clippath-35);
      }

      .cls-37 {
        clip-path: url(#clippath-36);
      }

      .cls-38 {
        clip-path: url(#clippath-37);
      }

      .cls-39 {
        clip-path: url(#clippath-39);
      }

      .cls-40 {
        clip-path: url(#clippath-33);
      }

      .cls-41 {
        clip-path: url(#clippath-32);
      }

      .cls-42 {
        clip-path: url(#clippath-30);
      }

      .cls-43 {
        clip-path: url(#clippath-38);
      }

      .cls-44 {
        clip-path: url(#clippath-31);
      }

      .cls-45 {
        clip-path: url(#clippath-50);
      }

      .cls-46 {
        clip-path: url(#clippath-14);
      }

      .cls-47 {
        clip-path: url(#clippath-13);
      }

      .cls-48 {
        clip-path: url(#clippath-12);
      }

      .cls-49 {
        clip-path: url(#clippath-10);
      }

      .cls-50 {
        clip-path: url(#clippath-15);
      }

      .cls-51 {
        clip-path: url(#clippath-17);
      }

      .cls-52 {
        clip-path: url(#clippath-16);
      }

      .cls-53 {
        clip-path: url(#clippath-19);
      }

      .cls-54 {
        clip-path: url(#clippath-11);
      }

      .cls-55 {
        clip-path: url(#clippath-18);
      }

      .cls-4 {
        stroke-width: 6.12px;
      }

      .cls-5 {
        fill: #020202;
      }
    </style></defs><path
     class="cls-3 area excluded"
     d="M 51.753819,2187.8985 V 338.66254 H 1372.5302 V 139.10753 h 344.986 V 42.509912 h 106.9473 v 63.686298 h 178.4731 V 38.010817 h 105.2853 V 335.55157 h 695.3558 V 143.92166 h 355.7839 v 112.17216 h 261.388 v 84.1242 h 60.5039 l -4.2426,920.16668 -666.1454,-2.9805 7.0639,939.9065 c 0,0 -2766.175581,-10.2392 -2766.175581,-9.4221 z"
     id="path101"
     title=""
     sodipodi:nodetypes="ccccccccccccccccccccccsc" /><rect
     class="cls-4 area excluded"
     x="313.0174"
     y="341.07214"
     width="88.107445"
     height="198.82758"
     id="rect101"
     title="" /><rect
     class="cls-4 area excluded"
     x="401.12476"
     y="341.07214"
     width="88.107445"
     height="198.82758"
     id="rect102"
     title="" /><rect
     class="cls-4 area excluded"
     x="1386.5189"
     y="151.93358"
     width="337.69037"
     height="191.06859"
     id="rect103"
     title="" /><path
     id="TFCL01_GRINDING_ROOM"
     style="fill:none;stroke:#020202;stroke-width:5.66619px;stroke-miterlimit:12.96"
     class="cls-4 area"
     d="m 2818.8423,161.26813 h 324.0244 v 183.64778 h -324.0244 z"
     title="" /><rect
     class="cls-4 area excluded"
     x="2167.0815"
     y="340.39584"
     width="641.29376"
     height="1855.7563"
     id="rect104-7"
     title=""
     style="fill:none;stroke:#020202;stroke-width:5.48932;stroke-miterlimit:12.96;stroke-dasharray:none" /><rect
     class="cls-4 area excluded"
     x="1083.1504"
     y="2071.1831"
     width="626.1333"
     height="113.64107"
     id="rect105"
     title="" /><line
     class="cls-4 area excluded"
     x1="1471.3051"
     y1="2071.0779"
     x2="1471.3051"
     y2="2182.5723"
     id="line105"
     title="" /><line
     class="cls-4 area excluded"
     x1="1609.7593"
     y1="2066.564"
     x2="1609.7593"
     y2="2190.2646"
     id="line106"
     title="" /><path
     class="cls-4 area"
     d="m 305.71684,732.92171 v -19.81975 h 9.56895 v -8.00467 h 11.10116 v 7.62069 h 44.77041 v -12.57317 h 17.98131 v 11.81503 h 74.99958 v -17.90966 h -12.6235 v -9.90495 h 50.50387 v 9.90495 h -29.84365 v 17.90966 h 81.11856 v 33.53505 H 539.52335 V 734.06383 H 400.62536 v 14.48328 h -28.69695 v -8.76283 h 5.35782 v -6.86257 c 0,0 -72.12296,0.57106 -71.54962,0 z"
     id="NLINE03"
     title="" /><path
     class="cls-4 area"
     d="m 307.51694,637.36917 v -19.81972 h 9.56895 v -8.00468 h 11.10116 v 7.62069 h 44.77041 V 604.5923 h 17.98131 v 11.81503 h 74.99957 v -17.90967 h -12.62349 v -9.90495 h 50.50386 v 9.90495 h -29.84364 v 17.90967 h 81.11856 v 33.53502 H 541.32344 V 638.51129 H 402.42546 v 14.48328 h -28.69695 v -8.76283 h 5.35782 v -6.86257 c 0,0 -72.12296,0.57106 -71.54962,0 z"
     id="NLINE04"
     style="fill:none;stroke:#020202;stroke-width:6.03772px;stroke-miterlimit:12.96"
     title="" /><path
     class="cls-4 area"
     d="m 303.90982,824.44896 v -19.81975 h 9.56895 v -8.00469 h 11.10116 v 7.6207 h 44.77041 v -12.57319 h 17.98131 v 11.81506 h 74.99957 v -17.90965 h -12.62349 v -9.90495 h 50.50386 v 9.90495 h -29.84364 v 17.90965 h 81.11856 v 33.53505 H 537.71632 V 825.59108 H 398.81834 v 14.48328 h -28.69695 v -8.76283 h 5.35782 v -6.86257 c 0,0 -72.12296,0.57106 -71.54962,0 z"
     id="NLINE02"
     title="" /><path
     class="cls-4 area"
     d="m 302.10281,918.19852 v -19.81974 h 9.56894 v -8.0047 h 11.10117 v 7.62071 h 44.7704 v -12.57318 h 17.98131 v 11.81504 h 74.99958 v -17.90964 h -12.6235 v -9.90495 h 50.50387 v 9.90495 h -29.84364 v 17.90964 H 549.6795 V 930.7717 H 535.90931 V 919.34064 H 397.01132 v 14.48328 h -28.69695 v -8.76283 h 5.35782 v -6.86257 c 0,0 -72.12296,0.57106 -71.54961,0 z"
     id="NLINE01"
     title="" /><path
     id="ZERAND01"
     class="cls-4 area"
     style="fill:none;stroke:#020202;stroke-width:6.03772px;stroke-miterlimit:12.96"
     d="m 1379.9954,1319.9255 h -33.4616 v 7.4041 h -63.2164 v -11.1062 h -127.4903 v 11.6378 h 116.8637 v 7.4041 h -130.1397 v 15.8716 h 74.9008 v 7.9358 h -84.9936 v -28.0411 h -49.4066 v -10.5744 h 48.8728 v -12.1695 h -67.4571 v 15.3398 H 947.0698 v -34.3916 H 933.784 v -23.8073 h 15.9351 v 11.6378 h 38.7799 v -62.9545 h 13.2858 v 64.5397 h 30.2786 v 11.116 h 33.4617 v 13.7547 h 55.7727 v -13.7547 h 14.3435 v -29.1044 h 18.0604 v 32.2747 h 131.7411 v -11.1061 h 61.091 v 9.521 h 33.4616 z"
     title="" /><path
     class="cls-4 area"
     d="m 1030.497,1122.7917 v -19.8001 h 7.1965 v -7.5124 l 23.9915,-8.5363 v 12.6322 h 71.6189 v -23.5513 h 11.3087 v 22.5274 h 9.9347 v 24.9199 h -10.6267 v 9.5603 h -32.5522 v 11.943 h 8.5706 v 9.5604 h -36.3284 v -9.5013 l 27.7578,-0.059 v -11.943 h -49.0013 v 10.9191 l -26.3838,-12.6323 v -8.5364 h -5.4863 z"
     id="DC04"
     title="" /><path
     class="cls-4 area"
     d="m 1031.895,1023.2481 v -19.8 h 7.1965 v -7.51238 l 23.9915,-8.53638 v 12.63226 h 71.6188 v -23.55133 h 11.3088 v 22.52733 h 9.9347 v 24.9199 h -10.6267 v 9.5603 h -32.5522 v 11.9431 h 8.5705 v 9.5603 h -36.3283 v -9.5012 l 27.7578,-0.059 v -11.9431 h -49.0013 v 10.9191 l -26.3838,-12.6322 v -8.5364 h -5.4863 z"
     id="DC03"
     title="" /><path
     class="cls-4 area"
     d="m 1033.293,916.53626 v -19.80003 h 7.1964 v -7.51244 l 23.9916,-8.53638 v 12.6323 h 71.6188 v -23.55137 h 11.3088 v 22.5274 h 9.9347 v 24.91989 h -10.6267 v 9.56034 h -32.5522 v 11.94304 h 8.5705 v 9.56035 h -36.3284 v -9.50127 l 27.7579,-0.0591 v -11.94304 h -49.0013 v 10.91907 l -26.3838,-12.63225 v -8.53638 h -5.4863 z"
     id="DC02"
     title="" /><path
     class="cls-4 area"
     d="m 1029.099,821.97022 v -19.80005 h 7.1965 v -7.5124 l 23.9916,-8.53638 v 12.63226 h 71.6188 v -23.55133 h 11.3087 v 22.52736 h 9.9347 v 24.9199 h -10.6266 v 9.56035 h -32.5522 v 11.94304 h 8.5705 v 9.56035 h -36.3284 v -9.50127 l 27.7579,-0.0591 v -11.94302 h -49.0013 V 843.129 l -26.3838,-12.63225 v -8.53638 h -5.4864 z"
     id="DC01"
     title="" /><polygon
     class="cls-4 area excluded"
     points="1388.05,6091.3 1362,6086.25 1370.4,6043.4 1349.81,6039.66 1341.41,6082.47 1335.11,6081.21 1333.43,6091.3 1343.09,6092.98 1330.49,6163.14 1346.87,6166.09 1352.75,6137.93 1358.22,6139.2 1363.68,6110.62 1355.7,6108.94 1358.22,6095.5 1386.37,6100.96 "
     id="polygon118"
     transform="matrix(0.98852741,0,0,0.98458735,87.870449,-5786.0245)"
     title="" /><polygon
     class="cls-4 area excluded"
     points="1566.8,6101.8 1543.28,6089.51 1563.6,6050.85 1544.95,6041.37 1524.64,6079.99 1518.96,6076.98 1514.46,6086.16 1523.24,6090.54 1491.07,6154.16 1505.93,6161.67 1519.63,6136.38 1524.5,6139.15 1537.91,6113.34 1530.75,6109.44 1537.01,6097.28 1562.42,6110.57 "
     id="polygon119"
     transform="matrix(0.98852741,0,0,0.98458735,87.870449,-5786.0245)"
     title="" /><polygon
     class="cls-4 area excluded"
     points="1465.05,6070.32 1441.21,6081.97 1422.12,6042.7 1403.43,6052.1 1422.5,6091.35 1416.71,6094.14 1421.44,6103.2 1430.17,6098.73 1462.35,6162.34 1477.2,6154.82 1464.95,6128.8 1470.07,6126.52 1457.23,6100.42 1449.84,6103.89 1443.76,6091.63 1469.53,6079.04 "
     id="polygon120"
     transform="matrix(0.98852741,0,0,0.98458735,87.870449,-5786.0245)"
     title="" /><polygon
     class="cls-4 area excluded"
     points="1579.6,6094.95 1605.51,6089.22 1595.98,6046.6 1616.47,6042.32 1625.99,6084.9 1632.26,6083.48 1634.2,6093.51 1624.59,6095.45 1639.03,6165.26 1622.73,6168.63 1616.11,6140.64 1610.68,6142.05 1604.47,6113.63 1612.41,6111.74 1609.53,6098.36 1581.53,6104.56 "
     id="polygon121"
     transform="matrix(0.98852741,0,0,0.98458735,87.870449,-5786.0245)"
     title="" /><path
     id="PMC01"
     style="fill:none;stroke:#020202;stroke-width:6.038;stroke-dasharray:none;stroke-opacity:1"
     class="cls-4 area"
     d="m 1626.5303,468.66504 0.5733,-33.34797 h 53.6869 v 10.91907 h 53.1037 v 9.77695 h 10.3895 v 12.07104 h -86.5852 v 11.49999 h -17.8923 v -8.05393 h -13.2759 v -2.87499 z m -44.5925,-34.78541 v 37.28632 h -11.0319 v 24.62453 h 14.3732 v 19.30776 h 58.1451 v 7.32533 h -21.3917 v 22.3009 h 7.0186 v 10.64339 h 9.3613 v -10.64339 h 46.1148 v 7.31549 l 17.0422,4.6571 v -10.97815 h 56.1385 v -15.31034 h -55.1401 v -11.98242 h -44.4441 v -29.62624 h -18.7129 v 13.32147 h -47.1132 v -8.65452 h 8.3531 v -20.63695 l -6.1882,-6.16352 -2.1649,-2.15625 0.2076,-30.63051 z"
     title="" /><path
     id="PMC03"
     style="fill:none;stroke:#020202;stroke-width:6.03772px;stroke-miterlimit:12.96"
     class="cls-4 area"
     d="m 1584.611,724.93344 v 37.27648 h -11.0221 v 24.63437 h 14.3633 v 19.30776 h 58.1452 v 7.31548 h -21.3818 v 22.30091 h 7.0185 v 10.65323 h 9.3515 v -10.65323 h 46.1247 v 7.32533 l 17.0422,4.6571 v -10.97815 h 56.1385 v -15.31034 h -55.1401 v -11.98242 h -44.4442 v -29.62624 h -18.7128 v 13.31162 h -47.1231 v -8.65452 h 8.3531 v -20.63695 l -6.1783,-6.15367 -2.1748,-2.16609 0.2175,-30.62067 z m 44.2595,33.20097 0.5733,-33.34797 h 53.6869 v 10.91907 h 53.1037 v 9.77696 h 10.3894 v 12.07104 h -86.5851 v 11.49998 h -17.8923 v -8.05393 h -13.2759 v -2.87499 z"
     title="" /><path
     id="PMC05"
     style="fill:none;stroke:#020202;stroke-width:6.03772px;stroke-miterlimit:12.96"
     class="cls-4 area"
     d="m 1583.7125,1050.8318 h -11.022 v 24.6245 h 14.3633 v 19.3078 h 58.1451 v 7.3253 h -21.3818 v 22.3009 h 7.0185 v 10.6533 h 9.3515 v -10.6533 h 46.1247 v 7.3155 l 17.0422,4.6571 v -10.9781 h 56.1385 v -15.3104 h -55.1401 v -11.9824 h -44.4442 v -29.6262 h -18.7128 v 13.3214 h -47.1231 v -8.6545 h 8.3531 v -20.6369 l -6.1783,-6.1636 -2.1748,-2.1562 0.2175,-30.6305 h -10.5773 z m 153.7674,-19.0125 -0.5734,33.3481 h -53.6869 v -10.9192 h -53.1037 v -9.7768 h -10.3894 v -12.0712 h 86.5851 v -11.4998 h 17.8923 v 8.0539 h 13.276 v 2.875 z"
     title="" /><path
     id="PMC02"
     style="fill:none;stroke:#020202;stroke-width:6.038;stroke-miterlimit:12.96"
     class="cls-4 area"
     d="m 1581.0356,700.71611 v -37.28632 h -11.0221 v -24.62453 h 14.3633 V 619.4975 h 58.1551 v -7.32533 h -21.3917 v -22.3009 h 7.0185 v -10.65323 h 9.3614 v 10.65323 h 46.1148 v -7.31548 l 17.0422,-4.6571 v 10.97815 h 56.1385 v 15.31033 h -55.1401 v 11.98243 h -44.4442 v 29.62623 h -18.7128 v -13.32146 h -47.1231 v 8.65452 h 8.3629 v 20.63695 l -6.1881,6.16352 -2.1748,2.15624 0.2175,30.63051 z m 46.3063,-7.64046 0.5733,-33.34797 h 53.6869 v 10.91908 h 53.1037 v 9.77695 h 10.3894 v 12.07104 h -86.5851 v 11.49998 h -17.8923 v -8.05393 h -13.2759 v -2.87499 z"
     title="" /><path
     id="PMC10"
     class="cls-4 area"
     d="m 1910.705,963.17407 0.5734,-33.34799 h 53.6869 v 10.91908 h 53.1037 v 9.77695 h 10.3894 v 12.07105 h -86.5851 v 11.49998 h -17.8923 v -8.05393 h -13.276 v -2.87499 z m 147.1523,-17.76196 h 11.0221 v -24.62453 h -14.3633 v -19.30776 h -58.1551 v -7.32533 h 21.3917 v -22.3009 h -7.0185 V 861.2102 h -9.3515 v 10.64339 h -46.1247 v -7.31549 l -17.0422,-4.65709 v 10.97815 h -56.1384 v 15.31033 h 55.14 v 11.98243 h 44.4442 v 29.62623 h 18.7128 v -13.31162 h 47.1231 v 8.65452 h -8.353 v 20.62711 l 6.1783,6.16351 2.1747,2.1661 -0.2174,30.62066 h 10.5772 z"
     title="" /><path
     id="PMC12"
     class="cls-4 area excluded"
     d="m 2011.859,1243.8208 -0.5733,33.348 h -53.6869 v -10.9191 h -53.1037 v -9.7769 h -10.3894 v -12.0711 h 86.5851 v -11.5 h 17.8923 v 8.054 h 13.2759 v 2.875 z m 52.3642,-16.4918 v -24.6344 h -14.3633 v -19.3077 h -58.1551 v -7.3155 h 21.3918 v -22.3009 h -7.0186 v -10.6533 h -9.3515 v 10.6533 h -46.1246 v -7.3254 l -17.0423,-4.6571 v 10.9782 h -56.1384 v 15.3103 h 55.14 v 11.9825 h 44.4442 v 29.6262 h 18.7128 v -13.3116 h 47.1231 v 8.6545 h -8.353 v 20.6369 l 6.1783,6.1537 2.1747,2.1661 -0.2174,30.6207 h 10.5772 v -37.2765 z" /><path
     id="PMC09"
     style="fill:none;stroke:#020202;stroke-width:6.03772px;stroke-miterlimit:12.96"
     class="cls-4 area"
     d="m 2048.5739,702.75368 v 37.27648 h 11.032 v 24.62453 h -14.3732 v 19.30775 h -58.1452 v 7.32533 h 21.3917 v 22.30091 h -7.0185 v 10.65323 h -9.3614 v -10.65323 h -46.1148 v 7.32533 l -17.0422,4.64725 v -10.97815 h -56.1483 v -15.31033 h 55.14 v -11.98243 h 44.4541 v -29.62623 h 18.7128 v 13.32146 h 47.1132 v -8.65452 h -8.353 v -20.63695 l 6.1882,-6.16352 2.1648,-2.15624 -0.2075,-30.62067 z m -38.3509,1.71397 -0.5734,33.34797 h -53.6869 v -10.91907 h -53.1038 v -9.77695 h -10.3893 v -12.07104 h 86.5851 v -11.49998 h 17.8924 v 8.05392 h 13.2759 v 2.87499 z"
     title="" /><path
     id="PMC04"
     style="fill:none;stroke:#020202;stroke-width:6.03772px;stroke-miterlimit:12.96"
     class="cls-4 area"
     d="m 1585.4973,950.15152 h -11.022 v -24.62453 h 14.3633 v -19.30776 h 58.155 v -7.32533 h -21.3917 v -22.30091 h 7.0185 v -10.64338 h 9.3614 v 10.64338 h 46.1148 v -7.31548 l 17.0422,-4.6571 v 10.97815 h 56.1385 v 15.31033 h -55.1401 v 11.98243 h -44.4442 v 29.62624 h -18.7128 v -13.31162 h -47.1231 v 8.64467 h 8.363 v 20.63695 l -6.1882,6.16352 -2.1748,2.16609 0.2175,30.62067 h -10.5773 z m 39.4968,31.44043 0.5732,-33.34797 h 53.6869 v 10.91907 h 53.1037 V 968.94 h 10.3895 v 12.07104 h -86.5851 v 11.49998 h -17.8922 v -8.05392 h -13.2759 v -2.875 z"
     title="" /><path
     id="PMC13"
     style="fill:none;stroke:#020202;stroke-width:6.05155px;stroke-miterlimit:12.96"
     class="cls-4 area"
     d="m 2003.5252,1691.5287 -0.5733,-33.348 h -53.687 v 10.9191 h -53.1036 v 9.7769 h -10.3895 v 12.0711 h 86.5851 v 11.5 h 17.8924 v -8.054 h 13.2759 v -2.875 z m -4.2911,-105.9606 h -7.0186 v -10.6533 h -9.3515 v 10.6533 h -46.1246 v -7.3254 l -17.0423,-4.6571 v 10.9782 h -56.1384 v 15.3103 h 55.14 v 11.9825 h 44.4442 v 29.6262 h 18.7128 v -13.3116 h 47.1231 v 8.6545 h -8.353 v 20.6369 l 6.1783,6.1537 2.1747,2.1661 -0.2174,30.6207 h 10.5772 v -37.2765 h 11.0221 v -24.6344 h -14.3633 v -19.3077 h -58.1551 v -7.3155 h 21.3918 z"
     title="" /><path
     id="PMC06"
     style="fill:none;stroke:#020202;stroke-width:6.03772px;stroke-miterlimit:12.96"
     class="cls-4 area"
     d="m 1582.8202,1278.8183 v -37.2765 h -11.0221 v -24.6344 h 14.3633 v -19.3077 h 58.1551 v -7.3155 h -21.3918 v -22.3009 h 7.0186 V 1157.33 h 9.3613 v 10.6533 h 46.1148 v -7.3254 l 17.0423,-4.6571 v 10.9782 h 56.1384 v 15.3103 h -55.14 v 11.9824 h -44.4442 v 29.6263 h -18.7128 v -13.3116 H 1593.18 v 8.6545 h 8.3629 v 20.6369 l -6.1882,6.1537 -2.1747,2.1661 0.2174,30.6207 z m 42.1836,-11.0865 0.5734,-33.348 h 53.6869 v 10.9191 h 53.1036 v 9.7769 h 10.3895 v 12.0711 h -86.5851 v 11.5 h -17.8924 v -8.054 h -13.2759 v -2.875 z"
     title="" /><path
     class="cls-4 area"
     d="m 1716.7757,1575.5972 v 24.211 h -24.901 v 8.8613 h -235.9714 v -5.9075 h -20.156 l -13.0387,5.3167 16.5974,7.0891 v 15.3497 h -25.4942 v -16.5312 h -13.0386 v -32.4816 h 227.6677 v -11.2243 h 88.3447 v 5.3168 z"
     id="SIGNATURE03"
     title="" /><path
     class="cls-4 area"
     d="m 1718.0114,1645.6309 v 24.211 h -24.901 v 8.8613 H 1457.139 v -5.9075 h -20.156 l -13.0387,5.3167 16.5974,7.0891 v 15.3497 h -25.4942 V 1684.02 h -13.0386 v -32.4816 h 227.6677 v -11.2243 h 88.3447 v 5.3168 z"
     id="SIGNATURE02"
     title="" /><path
     class="cls-4 area"
     d="m 1719.247,1713.981 v 24.211 h -24.901 v 8.8613 h -235.9713 v -5.9076 h -20.1561 l -13.0387,5.3168 16.5974,7.089 v 15.3497 h -25.4941 V 1752.37 h -13.0387 v -32.4815 h 227.6677 v -11.2243 h 88.3447 v 5.3168 z"
     id="SIGNATURE01"
     title="" /><path
     class="cls-5 area"
     d="m 1536.3691,1779.8148 h -18.7227 v 11.9824 h -20.7195 v 43.2825 h 88.2458 v -41.2838 l -48.3093,-0.9846 z"
     id="CN03"
     style="font-variation-settings:normal;opacity:1;vector-effect:none;fill:none;fill-opacity:1;stroke:#020202;stroke-width:6.03772px;stroke-linecap:butt;stroke-linejoin:miter;stroke-miterlimit:12.96;stroke-dasharray:none;stroke-dashoffset:0;stroke-opacity:1;-inkscape-stroke:none;stop-color:#000000;stop-opacity:1"
     title=""
     sodipodi:nodetypes="ccccccccc" /><path
     class="cls-5 area"
     d="m 1153.5233,1982.0344 h -18.7227 v -15.9317 h -20.7196 v -57.5481 h 88.2459 v 54.8906 h -48.8036 z"
     id="CN04"
     style="font-variation-settings:normal;opacity:1;vector-effect:none;fill:none;fill-opacity:1;stroke:#020202;stroke-width:6.03772px;stroke-linecap:butt;stroke-linejoin:miter;stroke-miterlimit:12.96;stroke-dasharray:none;stroke-dashoffset:0;stroke-opacity:1;-inkscape-stroke:none;stop-color:#000000;stop-opacity:1"
     title=""
     sodipodi:nodetypes="ccccccccc" /><path
     class="cls-5 area excluded"
     d="m 1152.9704,1817.4539 h -18.7227 v 15.9317 h -20.7196 v 57.5481 h 88.2459 v -54.8906 h -48.8036 z"
     id="CN05"
     style="font-variation-settings:normal;vector-effect:none;fill:none;fill-opacity:1;stroke:#020202;stroke-width:6.03772px;stroke-linecap:butt;stroke-linejoin:miter;stroke-miterlimit:12.96;stroke-dasharray:none;stroke-dashoffset:0;stroke-opacity:1;-inkscape-stroke:none;stop-color:#000000"
     title=""
     sodipodi:nodetypes="ccccccccc" /><path
     class="cls-5 area"
     d="m 1586.4653,1934.2016 h -88.2458 v 43.2824 h 20.7195 v 11.9825 h 18.7227 v -13.9812 h 48.8036 z"
     id="CN01"
     title=""
     style="font-variation-settings:normal;opacity:1;vector-effect:none;fill:none;fill-opacity:1;stroke:#020202;stroke-width:6.03772px;stroke-linecap:butt;stroke-linejoin:miter;stroke-miterlimit:12.96;stroke-dasharray:none;stroke-dashoffset:0;stroke-opacity:1;-inkscape-stroke:none;stop-color:#000000;stop-opacity:1"
     sodipodi:nodetypes="ccccccccc" /><path
     class="cls-4 area"
     d="m 1499.1435,1852.0504 h 87.4847 v 61.9207 h -88.7995 c 0,0 1.9771,-61.9207 1.3148,-61.9207 z"
     id="CN02"
     title="" /><path
     id="PFP08"
     class="cls-4 area"
     style="fill:none;stroke:#020202;stroke-width:6.03772px;stroke-miterlimit:12.96"
     d="m 2289.1802,1312.7617 h 17.0719 v -8.0737 h -29.4186 l -0.099,26.9384 h -25.7907 l 0.04,-1.8904 v -49.3574 h 25.8796 v 15.7534 h 29.3593 v -7.2663 h -17.0422 v -11.6378 h 42.9317 v 10.0625 h 36.2988 v -13.8335 h 7.582 v -9.1172 h 15.7769 v 9.4323 h 59.0348 v 26.4165 6.2817 h -37.8804 v 16.9841 h -8.2047 V 1305.84 H 2448.6 v -15.714 h -55.8815 v 23.8959 h -18.3075 v 5.3463 h -44.8297 v 12.2582 h -30.6147 v -7.2368 h -9.7864 z"
     title="" /><path
     id="PFP07"
     style="fill:none;stroke:#020202;stroke-width:6.03772px;stroke-miterlimit:12.96"
     class="cls-4 area"
     d="m 2253.3874,1191.4868 h 25.8796 v 15.7534 h 29.3593 v -7.2663 h -17.0422 v -11.6378 h 42.9317 v 10.0625 h 36.2988 v -13.8335 h 7.582 v -9.1172 h 15.7769 v 9.4323 h 59.0348 v 26.4165 6.2817 h -37.8804 v 16.9841 h -8.2047 v -17.6143 h 43.8807 v -15.714 h -55.8815 v 23.8959 h -18.3075 v 5.3463 h -44.8297 v 12.2582 h -30.6147 v -7.2368 h -9.7864 v -11.6279 h 17.0719 v -8.0737 h -29.4186 l -0.099,26.9384 h -25.7907 l 0.04,-1.8904 z"
     title="" /><path
     id="PFP09"
     style="fill:none;stroke:#020202;stroke-width:6.03772px;stroke-miterlimit:12.96"
     class="cls-4 area"
     d="m 2252.1564,1601.2157 h 25.8796 v 15.7534 h 29.3593 v -7.2663 h -17.0422 v -11.6378 h 42.9317 v 10.0625 h 36.2988 v -13.8335 h 7.582 v -9.1172 h 15.7769 v 9.4323 h 59.0348 v 26.4165 6.2817 h -37.8804 v 16.9841 h -8.2047 v -17.6143 h 43.8807 v -15.714 h -55.8815 v 23.8959 h -18.3075 v 5.3463 h -44.8297 v 12.2582 h -30.6147 v -7.2368 h -9.7864 v -11.6279 h 17.0719 v -8.0737 h -29.4186 l -0.099,26.9384 h -25.7907 l 0.04,-1.8904 z"
     title="" /><path
     id="PFP11"
     style="fill:none;stroke:#020202;stroke-width:6.03772px;stroke-miterlimit:12.96"
     class="cls-4 area"
     d="m 2327.4203,1793.5056 v 10.0625 h 36.2988 v -13.8335 h 7.582 v -9.1172 h 15.7769 v 9.4323 h 59.0348 v 26.4165 6.2817 h -37.8804 v 16.9841 h -8.2047 v -17.6143 h 43.8807 v -15.714 h -55.8815 v 23.8959 h -18.3075 v 5.3463 h -44.8297 v 12.2582 h -30.6147 v -7.2368 h -9.7864 v -11.6279 h 17.0719 v -8.0737 h -29.4186 l -0.099,26.9384 h -25.7907 l 0.04,-1.8904 v -49.3574 h 25.8796 v 15.7534 h 29.3593 v -7.2663 h -17.0422 v -11.6378 z"
     title="" /><path
     id="PFP13"
     style="fill:none;stroke:#020202;stroke-width:6.03772px;stroke-miterlimit:12.96"
     class="cls-4 area"
     d="m 2385.9051,2063.194 v 9.4323 h 59.0348 v 26.4165 6.2817 h -37.8804 v 16.9841 h -8.2047 v -17.6143 h 43.8807 v -15.714 h -55.8815 v 23.8959 h -18.3075 v 5.3463 h -44.8297 v 12.2582 h -30.6147 v -7.2368 h -9.7864 v -11.6279 h 17.0719 v -8.0737 h -29.4186 l -0.099,26.9384 h -25.7907 l 0.04,-1.8904 v -49.3574 h 25.8796 v 15.7534 h 29.3593 v -7.2663 h -17.0422 v -11.6378 h 42.9317 v 10.0625 h 36.2988 v -13.8335 h 7.582 v -9.1172 z"
     title="" /><path
     id="PFP05"
     class="cls-4 area"
     style="fill:none;stroke:#020202;stroke-width:6.03772px;stroke-miterlimit:12.96"
     d="m 2298.5637,1041.2026 v -11.6378 h 17.0719 v -8.0736 h -29.4186 l -0.099,26.9383 h -25.7907 l 0.04,-1.8806 v -49.3672 h 25.8797 v 15.7534 h 29.3592 v -7.2663 h -17.0422 v -11.62794 h 42.9318 v 10.06244 h 36.2987 v -13.83341 h 7.582 v -9.11727 h 15.7769 v 9.43234 h 59.0349 v 26.40664 6.2915 h -37.8804 v 16.9743 h -8.2048 v -17.6044 h 43.8807 v -15.7239 h -55.8814 v 23.8959 h -18.3075 v 5.3464 h -44.8298 v 12.2581 h -30.6147 v -7.2269 z"
     title="" /><path
     id="PFP03"
     class="cls-4 area"
     style="fill:none;stroke:#020202;stroke-width:6.03772px;stroke-miterlimit:12.96"
     d="m 2296.2176,823.26424 h 17.0719 v -8.07361 h -29.4186 l -0.099,26.93831 h -25.7907 l 0.04,-1.89041 v -49.35736 h 25.8796 v 15.75339 h 29.3593 v -7.26625 h -17.0422 v -11.63782 h 42.9317 v 10.06248 h 36.2988 v -13.83345 h 7.582 v -9.11728 h 15.7769 v 9.43235 h 59.0348 v 26.41647 6.28167 h -37.8804 v 16.98413 h -8.2047 V 816.3426 h 43.8807 v -15.71402 h -55.8815 v 23.89594 h -18.3075 v 5.34631 h -44.8297 v 12.25811 h -30.6147 v -7.22687 h -9.7864 z"
     title="" /><path
     id="PFP01"
     class="cls-4 area"
     style="fill:none;stroke:#020202;stroke-width:5.95655px;stroke-miterlimit:12.96"
     d="m 2291.5263,619.4054 h 17.0719 v -8.07362 h -29.4186 l -0.099,26.93831 h -25.7907 l 0.039,-1.88056 v -49.36721 h 25.8797 v 15.7534 h 29.3592 v -7.26626 h -17.0422 v -11.62798 h 42.9318 v 10.06249 h 36.2987 v -13.83346 h 7.582 v -9.11727 h 15.7769 v 9.43234 h 59.0349 v 26.40663 6.29152 h -37.8804 v 16.97428 h -8.2048 v -17.60442 h 43.8807 v -15.72386 h -55.8814 v 23.89594 h -18.3075 v 5.34631 h -44.8298 v 12.25811 h -30.6147 v -7.22687 h -9.7864 z"
     title="" /><path
     id="PFB20"
     class="cls-4 area"
     style="fill:none;stroke:#020202;stroke-width:6.03772px;stroke-miterlimit:12.96"
     d="m 2382.6213,500.7 v -5.34631 h -44.8297 v -12.26796 h -30.6147 v 7.23672 h -9.7865 v 11.62797 h 17.0719 v 8.07362 h -29.4186 l -0.099,-26.93831 h -25.7907 l 0.04,1.89041 v 49.36721 h 25.8796 v -15.76324 h 29.3593 v 7.26625 h -17.0423 v 11.63782 h 42.9318 V 527.4217 h 36.2987 v 13.83345 h 7.582 v 9.11728 h 15.7769 v -9.43235 h 59.0349 v -26.40663 -6.29151 h -37.8804 v -16.97429 h -8.2048 v 17.60442 h 43.8808 v 15.72386 H 2400.929 V 500.7 Z"
     title="" /><path
     id="PFP10"
     class="cls-4 area"
     style="fill:none;stroke:#020202;stroke-width:6.03772px;stroke-miterlimit:12.96"
     d="m 2302.7337,1711.7953 v 8.0736 h -29.4186 l -0.099,-26.9383 h -25.7907 l 0.039,1.8805 v 49.3672 h 25.8797 v -15.7534 h 29.3592 v 7.2663 h -17.0422 v 11.628 h 42.9318 v -10.0625 h 36.2987 v 13.8334 h 7.582 v 9.1173 h 15.7769 v -9.4323 h 59.0349 v -26.4067 -6.2915 h -37.8804 v -16.9743 h -8.2048 v 17.6045 h 43.8807 v 15.7238 h -55.8814 v -23.8959 h -18.3075 v -5.3463 h -44.8298 v -12.2581 h -30.6147 v 7.2268 h -9.7864 v 11.6379 z"
     title="" /><path
     id="PFP12"
     style="fill:none;stroke:#020202;stroke-width:6.03772px;stroke-miterlimit:12.96"
     class="cls-4 area"
     d="m 2274.5177,1939.6774 v -15.7534 h 29.3592 v 7.2663 h -17.0422 v 11.628 h 42.9318 v -10.0625 h 36.2987 v 13.8334 h 7.582 v 9.1173 h 15.7769 v -9.4323 h 59.0349 v -26.4067 -6.2915 h -37.8804 v -16.9743 h -8.2048 v 17.6045 h 43.8807 v 15.7238 h -55.8814 v -23.8959 h -18.3075 v -5.3463 h -44.8298 v -12.2581 h -30.6147 v 7.2268 h -9.7864 v 11.6379 h 17.0719 v 8.0736 h -29.4186 l -0.099,-26.9383 h -25.7907 l 0.039,1.8805 v 49.3672 z"
     title="" /><path
     id="PFP06"
     style="opacity:1;vector-effect:none;fill:none;stroke:#020202;stroke-width:6.03772px;stroke-miterlimit:12.96;stop-color:#000000;stop-opacity:1"
     class="cls-4 area"
     d="m 2292.6992,1102.6901 h 17.0719 v 8.0736 h -29.4186 l -0.099,-26.9383 h -25.7907 l 0.039,1.8806 v 49.3672 h 25.8797 v -15.7534 h 29.3592 v 7.2663 h -17.0422 v 11.6279 h 42.9318 v -10.0526 h 36.2987 v 13.8334 h 7.582 v 9.1173 h 15.7769 v -9.4323 h 59.0349 v -26.4165 -6.2817 h -37.8804 v -16.9841 h -8.2048 v 17.6044 h 43.8807 v 15.7239 h -55.8814 v -23.896 h -18.3075 v -5.3463 h -44.8298 v -12.2581 h -30.6147 v 7.2269 h -9.7864 z"
     title="" /><path
     id="PFP04"
     class="cls-4 area"
     style="fill:none;stroke:#020202;stroke-width:6.03772px;stroke-miterlimit:12.96"
     d="m 2293.8721,901.91302 h 17.0719 v 8.07362 h -29.4186 l -0.099,-26.93831 h -25.7907 l 0.039,1.88056 v 49.36721 h 25.8797 v -15.7534 h 29.3592 v 7.26625 h -17.0422 v 11.62798 h 42.9318 v -10.05264 h 36.2987 v 13.83346 h 7.582 v 9.11728 h 15.7769 v -9.43235 h 59.0349 V 914.4862 908.20453 H 2417.616 V 891.2204 h -8.2048 v 17.60442 h 43.8807 v 15.72386 h -55.8814 v -23.89593 h -18.3075 v -5.34631 h -44.8298 v -12.25811 h -30.6147 v 7.22687 h -9.7864 z"
     title="" /><path
     id="PFP02"
     class="cls-4 area"
     style="fill:none;stroke:#020202;stroke-width:6.03772px;stroke-miterlimit:12.96"
     d="m 2295.045,706.13765 h 17.0719 v 8.07361 h -29.4186 l -0.099,-26.93831 h -25.7907 l 0.04,1.88057 v 49.3672 h 25.8797 v -15.75339 h 29.3592 v 7.26625 h -17.0422 v 11.62798 h 42.9318 v -10.06248 h 36.2987 v 13.84329 h 7.582 v 9.11728 h 15.7769 v -9.43234 h 59.0349 v -26.41648 -6.29152 h -37.8804 v -16.97428 h -8.2048 v 17.60442 h 43.8807 v 15.72386 h -55.8814 v -23.89593 h -18.3075 v -5.34631 h -44.8298 v -12.25812 h -30.6147 v 7.22687 h -9.7864 z"
     title="" /><path
     style="fill:none;stroke:#020202;stroke-width:6.03772;stroke-dasharray:none;stroke-opacity:1"
     d="m 1030.6015,595.90696 54.1721,-0.3481 12.0576,6.09181 1.2232,11.3134 14.1547,0.17404 -0.1747,-12.87985 36.872,0.17406 -0.1748,9.92096 -18.5233,-0.52215 c 0,0 -0.1748,47.16811 0.5242,46.99407 0.699,-0.17406 18.1739,-0.34811 18.1739,-0.34811 l 0.3494,10.79123 -17.1253,-0.17405 0.1747,25.75971 -33.5518,-1.21837 -1.2232,-30.45912 -15.3778,-1.04431 0.699,17.23116 -53.2983,0.34811 -1.0486,-29.76292 -17.8243,-0.87026 -0.5242,-28.19643 19.9213,-0.34811 z"
     id="SL01"
     class="area"
     title="" /><path
     style="fill:none;stroke:#020202;stroke-width:5.46353;stroke-miterlimit:12.96;stroke-dasharray:none"
     d="M 77.472299,355.85819 H 261.81529 V 1778.0805 H 690.1417 v 392.0613 H 73.857729 Z"
     id="Receiving"
     class="area"
     title="" /><path
     id="rect104"
     class="cls-4 area excluded"
     style="fill:none;stroke:#020202;stroke-width:6.12px;stroke-miterlimit:12.96"
     d="m 1733.8188,150.38821 h 359.328 v 193.19397 h -359.328 z"
     title="" /><path
     id="rect104-1"
     class="cls-4 area excluded"
     style="fill:none;stroke:#020202;stroke-width:6.12;stroke-miterlimit:12.96;stroke-dasharray:none"
     d="m 2451.4817,1490.4338 h 362.7142 v 38.1883 h -362.7142 z"
     title="" /><path
     id="PMC14"
     style="fill:none;stroke:#020202;stroke-width:6.03772px;stroke-miterlimit:12.96"
     class="cls-4 area "
     d="m 1987.4783,1945.2902 h -46.1247 v 7.3254 l -17.0422,4.6571 v -10.9782 h -56.1385 v -15.3103 h 55.1401 v -11.9825 h 44.4442 v -29.6262 h 18.7128 v 13.3116 h 47.1231 v -8.6545 h -8.3531 v -20.6369 l 6.1783,-6.1537 2.1748,-2.1661 -0.2175,-30.6207 h 10.5773 v 37.2765 h 11.022 v 24.6344 h -14.3633 v 19.3077 h -58.155 v 7.3155 h 21.3917 v 22.3009 h -7.0185 v 10.6533 h -9.3515 z m 11.6943,-105.2418 -0.5734,33.348 h -53.6869 v -10.9191 h -53.1037 v -9.7769 h -10.3894 v -12.0711 h 86.5851 v -11.5 h 17.8922 v 8.054 h 13.2761 v 2.875 z"
     title="" /><path
     style="fill:none;stroke:#020202;stroke-width:6.038;stroke-miterlimit:12.96"
     d="m 293.31371,1138.7573 -2.5,-47 22,-24.5 v -37.5 h 69 l 14.39776,53.7332 h 60.10224 v -19.7332 h 44 v 24.5 h 58 v -36.5 h 21 v -68.99997 h 41.50004 v 83.99997 h 24.49995 v 21 h 53.5 l 21.8965,-37.9258 h 87.1035 v 77.9258 l -40.7518,23.528 h -67.7482 v -21.528 H 415.81371 v 25.5 h 71.5 v 39 h -200.5 v -43 h 101 v -15.5 z"
     id="PCMC01"
     class="area"
     title="" /><path
     style="font-variation-settings:normal;opacity:1;fill:none;fill-opacity:1;stroke:#020202;stroke-width:6.038;stroke-linecap:butt;stroke-linejoin:miter;stroke-miterlimit:12.96;stroke-dasharray:none;stroke-dashoffset:0;stroke-opacity:1"
     d="m 3290,776 v -34.5 h 16 V 695 h -11 V 670 L 3315.75,649.25 3296,629.5 h 58 V 603 h -70 l 49.25,-49.25 12.75,12.75 50,-50 -42,-42 -84.75,84.75 V 529 H 3241 v 60 l -31.1022,-17.95689 -10.7746,18.66202 44.6262,25.7649 V 630.5 H 3205 V 647 h 37 v 70 h -16 v 23.5 h 15.5 V 778 h 48 z"
     id="TFCL01_EXTRUSION"
     class="cls-4 area" /><path
     style="font-variation-settings:normal;opacity:1;fill:none;fill-opacity:1;stroke:#020202;stroke-width:6.038;stroke-linecap:butt;stroke-linejoin:miter;stroke-miterlimit:12.96;stroke-dasharray:none;stroke-dashoffset:0;stroke-opacity:1"
     d="m 3243,789.5 h 47.5 v 48 h 18 V 964 H 3274 v 44.5 h 20 v 46 h 7.5 v 21 h -17 v 49 h -40 v -31 H 3231 v -14 H 3123 V 1066 h 16.5 V 829 h 73.5 v 119.5 l 32.6728,56.5909 H 3258 V 965 h -25.5 v -80 h 14.5 z"
     id="TFCL01_FORMING"
     class="cls-4 area" /><path
     style="font-variation-settings:normal;opacity:1;fill:none;fill-opacity:1;stroke:#020202;stroke-width:6.038;stroke-linecap:butt;stroke-linejoin:miter;stroke-miterlimit:12.96;stroke-dasharray:none;stroke-dashoffset:0;stroke-opacity:1"
     d="m 3118,1096.5 h 99.5 v 56 H 3197 v 15 h 10.5 v 40 h -39 V 1169 h 13.5 v -18 l -14.25,-14.25 -10.75,10.75 -15.25,-15.25 16.5,-16.5 -8,-8 H 3117 Z"
     id="TFCL01_PACKAGING"
     class="cls-4 area" /><path
     style="font-variation-settings:normal;opacity:1;fill:none;fill-opacity:1;stroke:#020202;stroke-width:6.038;stroke-linecap:butt;stroke-linejoin:miter;stroke-miterlimit:12.96;stroke-dasharray:none;stroke-dashoffset:0;stroke-opacity:1"
     d="m 2953.5,572 h 43.5 v 42.5 h -9 V 675 h 12 v 33.5 h 20.5 l 21.613,37.43477 H 3011 V 815 l 13.0933,22.67821 H 3041.5 V 861.5 h -25 V 848 h -20 v 36 h 18.5 v -13.5 h 24.5 V 956 H 2996 v 38.5 h -26.5 v -13 h -44 v 14 h -22 v -22 h -54 v -21 H 2951 v -30 h 26 v 13 h 41 V 923 l -33.6848,-19.44791 H 2949 V 875 h 14.5 V 856.5 H 2939 V 785 h 16.5 v -22 h -29 v -39 l 30.2362,-17.45689 z"
     id="TFLL01"
     class="cls-4 area" /></svg>
